<?xml version="1.0" standalone="no"?><!DOCTYPE svg PUBLIC "-//W3C//DTD SVG 1.1//EN" "http://www.w3.org/Graphics/SVG/1.1/DTD/svg11.dtd"><svg t="1639141905761" class="icon" viewBox="0 0 1024 1024" version="1.1" xmlns="http://www.w3.org/2000/svg" p-id="1830" xmlns:xlink="http://www.w3.org/1999/xlink" width="200" height="200"><defs><style type="text/css"></style></defs><path d="M255.6 422m-121 0a121 121 0 1 0 242 0 121 121 0 1 0-242 0Z" fill="#EFB81C" p-id="1831"></path><path d="M255.6 551.2c-71.2 0-129.2-58-129.2-129.2s58-129.2 129.2-129.2c71.2 0 129.2 58 129.2 129.2s-57.8 129.2-129.2 129.2z m0-241.8c-62.2 0-112.6 50.6-112.6 112.6s50.6 112.6 112.6 112.6c62.2 0 112.6-50.6 112.6-112.6s-50.4-112.6-112.6-112.6zM247.4 239.4h16.6v31.2h-16.6zM247.4 570h16.6v31.2h-16.6zM133.614 286.618l22.062 22.06-11.738 11.74-22.06-22.062zM367.324 520.168l22.062 22.062-11.738 11.738-22.06-22.06z" fill="#434244" p-id="1832"></path><path d="M74.8 412H106v16.6H74.8zM405.2 412h31.2v16.6h-31.2z" fill="#434244" p-id="1833"></path><path d="M143.878 520.252l11.738 11.738-22.062 22.06-11.738-11.738zM377.71 286.54l11.738 11.736-22.062 22.062-11.738-11.738z" fill="#434244" p-id="1834"></path><path d="M735.2 364.6c-62.8 0-119 28.2-156.8 72.6-7.2-49.2-49.4-87-100.4-87-56.2 0-101.6 45.6-101.6 101.6 0 12.2 2.2 23.8 6.2 34.6-22-12-47.2-18.8-74-18.8-85.2 0-154.4 69.2-154.4 154.4s69.2 154.4 154.4 154.4h426.8c113.6 0 205.8-92.2 205.8-205.8s-92.4-206-206-206z" fill="#E3F3F7" p-id="1835"></path><path d="M195.6 591c-3.8 0-7.6-0.8-11.4-2.4-14-6.2-20.2-22.6-14-36.6 19.8-44.2 89.2-116 209.2-72 14.4 5.2 21.8 21.2 16.4 35.6-5.2 14.4-21.2 21.8-35.6 16.4-102.2-37.6-138.2 39.4-139.6 42.6-4.4 10.2-14.4 16.4-25 16.4zM399 482.6s-0.2 0 0 0c-15.4-0.2-27.8-12.4-27.8-27.6 0-28 12.8-80.6 61-100.4 51.8-21.2 101.4 0.2 125.4 29 9.8 11.8 8.2 29.2-3.4 39-11.8 9.8-29.2 8.2-39-3.4-0.2-0.2-24.6-28.6-62-13.4-25.8 10.6-26.6 49-26.6 49.4-0.2 15.2-12.4 27.4-27.6 27.4zM600 480c-6 0-12.2-2-17.2-6-12-9.4-14-26.8-4.6-38.8 3.6-4.4 87.4-108.4 225.8-63 14.6 4.8 22.4 20.4 17.6 35-4.8 14.6-20.4 22.4-35 17.6-101-33-162.6 41.6-165 44.8-5.4 6.8-13.4 10.4-21.6 10.4z" fill="#FFFFFF" p-id="1836"></path><path d="M738.6 775H301.8c-16.8 0-30.4-13.6-30.4-30.4 0-16.8 13.6-30.4 30.4-30.4h436c140-8.8 146.4-167.2 146.6-174 0.6-16.4 14-29.6 30.4-29.6h0.8c16.8 0.4 30 14.4 29.6 31.2-2 76.6-47.4 224-205 233.2h-1.6z" fill="#D1DBC6" p-id="1837"></path><path d="M735.2 784.6H308.4c-89.6 0-162.6-73-162.6-162.6s73-162.6 162.6-162.6c21 0 41.8 4.2 61.2 12-1.2-6.4-1.8-12.8-1.8-19.4 0-60.6 49.4-110 110-110 48.6 0 91.2 32.6 105.2 78 40.2-40.6 94.8-63.6 152.2-63.6 118 0 214.2 96 214.2 214.2-0.2 118-96.2 214-214.2 214zM308.4 475.8c-80.6 0-146 65.6-146 146 0 80.6 65.6 146 146 146h426.8c108.8 0 197.4-88.6 197.4-197.4s-88.6-197.4-197.4-197.4c-58 0-112.8 25.4-150.4 69.6l-12 14-2.6-18.2c-6.6-45.6-46.2-79.8-92.2-79.8-51.4 0-93.4 41.8-93.4 93.4 0 10.6 2 21.4 5.6 31.8l7.4 20.6-19.2-10.6c-21.4-11.8-45.6-18-70-18z" fill="#434244" p-id="1838"></path></svg>