<?xml version="1.0" standalone="no"?><!DOCTYPE svg PUBLIC "-//W3C//DTD SVG 1.1//EN" "http://www.w3.org/Graphics/SVG/1.1/DTD/svg11.dtd"><svg t="1639186820845" class="icon" viewBox="0 0 1024 1024" version="1.1" xmlns="http://www.w3.org/2000/svg" p-id="1759" xmlns:xlink="http://www.w3.org/1999/xlink" width="200" height="200"><defs><style type="text/css"></style></defs><path d="M748.032 112c37.12 0 67.648 28.096 71.552 64.128l0.448 7.872-0.064 360h52.032c20.096 0 36.736 14.784 39.552 34.112l0.448 5.888v288c0 22.08-17.92 40-40 40H152a40 40 0 0 1-40-40v-288c0-22.08 17.92-40 40-40h51.968V289.6c0-16.64 5.824-32.768 16.32-45.568l5.632-6.144 108.928-105.6c11.52-11.136 26.368-18.112 42.176-19.84l7.936-0.448h363.072z m-399.232 512H192V832h640V624h-156.864l-3.392 12.16a168.128 168.128 0 0 1-149.12 115.52L512 752a168.064 168.064 0 0 1-162.88-126.656L348.8 624zM739.968 192H466.56v139.84a40 40 0 0 1-34.048 39.552l-5.952 0.448H283.968V544H384c20.096 0 36.736 14.784 39.552 34.112l0.448 5.888a88 88 0 0 0 176 0l0.448-5.888A40 40 0 0 1 640 544h99.968V192z m-353.408 1.536L285.12 291.84H386.56V193.536z" fill="#595959" p-id="1760"></path></svg>